<svg width="341" height="220" viewBox="0 0 341 220" fill="none" xmlns="http://www.w3.org/2000/svg">
<g clip-path="url(#clip0_1_201)">
<path d="M31.1 23H34.1C34.7566 23 35.4068 23.1293 36.0134 23.3806C36.6201 23.6319 37.1712 24.0002 37.6355 24.4645C38.0998 24.9288 38.4681 25.48 38.7194 26.0866C38.9707 26.6932 39.1 27.3434 39.1 28C39.1 28.6566 38.9707 29.3068 38.7194 29.9134C38.4681 30.52 38.0998 31.0712 37.6355 31.5355C37.1712 31.9998 36.6201 32.3681 36.0134 32.6194C35.4068 32.8707 34.7566 33 34.1 33H31.1M25.1 33H22.1C21.4434 33 20.7932 32.8707 20.1866 32.6194C19.58 32.3681 19.0288 31.9998 18.5645 31.5355C17.6268 30.5979 17.1 29.3261 17.1 28C17.1 26.6739 17.6268 25.4021 18.5645 24.4645C19.5022 23.5268 20.7739 23 22.1 23H25.1" stroke="#141414" stroke-width="2" stroke-linecap="round" stroke-linejoin="round"/>
<path d="M24.1 28H32.1" stroke="#005AE2" stroke-width="2" stroke-linecap="round" stroke-linejoin="round"/>
</g>
<circle cx="28.1" cy="28" r="28" fill="#3284FF" fill-opacity="0.13"/>
<path d="M16.708 117.304C15.1293 118.712 13.092 119.416 10.596 119.416C8.10001 119.416 6.06267 118.712 4.48401 117.304C2.90534 115.875 2.11601 113.965 2.11601 111.576V96.6H5.79601V111.352C5.79601 112.717 6.19067 113.805 6.98001 114.616C7.79067 115.427 8.99601 115.832 10.596 115.832C12.196 115.832 13.3907 115.427 14.18 114.616C14.9907 113.805 15.396 112.717 15.396 111.352V96.6H19.076V111.576C19.076 113.965 18.2867 115.875 16.708 117.304ZM36.0768 119L31.3408 110.84H26.9888V119H23.3088V96.6H32.2688C34.2741 96.6 35.9701 97.304 37.3568 98.712C38.7648 100.099 39.4688 101.795 39.4688 103.8C39.4688 105.229 39.0528 106.541 38.2208 107.736C37.4101 108.909 36.3434 109.763 35.0208 110.296L40.1088 119H36.0768ZM26.9888 100.056V107.544H32.2688C33.2501 107.544 34.0821 107.181 34.7648 106.456C35.4474 105.731 35.7888 104.845 35.7888 103.8C35.7888 102.755 35.4474 101.869 34.7648 101.144C34.0821 100.419 33.2501 100.056 32.2688 100.056H26.9888ZM46.6138 115.48H55.7338V119H42.9338V96.6H46.6138V115.48ZM73.921 119.416C71.7663 119.416 69.9317 118.925 68.417 117.944C66.9237 116.963 65.8783 115.619 65.281 113.912L68.449 112.056C69.345 114.573 71.201 115.832 74.017 115.832C75.4037 115.832 76.4383 115.565 77.121 115.032C77.825 114.477 78.177 113.763 78.177 112.888C78.177 111.971 77.8037 111.277 77.057 110.808C76.3103 110.317 74.9877 109.784 73.089 109.208C72.0223 108.888 71.1583 108.589 70.497 108.312C69.8357 108.035 69.1317 107.651 68.385 107.16C67.6597 106.648 67.1157 106.019 66.753 105.272C66.3903 104.525 66.209 103.651 66.209 102.648C66.209 100.664 66.913 99.096 68.321 97.944C69.729 96.7707 71.425 96.184 73.409 96.184C75.201 96.184 76.769 96.6213 78.113 97.496C79.457 98.3707 80.4917 99.576 81.217 101.112L78.113 102.904C77.1743 100.813 75.6063 99.768 73.409 99.768C72.3423 99.768 71.489 100.024 70.849 100.536C70.209 101.027 69.889 101.699 69.889 102.552C69.889 103.384 70.209 104.045 70.849 104.536C71.5103 105.005 72.6943 105.507 74.401 106.04C75.2543 106.317 75.873 106.531 76.257 106.68C76.6623 106.808 77.217 107.021 77.921 107.32C78.6463 107.619 79.1903 107.917 79.553 108.216C79.9157 108.515 80.2997 108.888 80.705 109.336C81.1317 109.784 81.4303 110.296 81.601 110.872C81.7717 111.448 81.857 112.099 81.857 112.824C81.857 114.851 81.121 116.461 79.649 117.656C78.1983 118.829 76.289 119.416 73.921 119.416ZM93.2508 102.584C95.0854 102.584 96.5681 103.171 97.6988 104.344C98.8294 105.517 99.3948 107.128 99.3948 109.176V119H95.9388V109.528C95.9388 108.333 95.6188 107.416 94.9788 106.776C94.3388 106.136 93.4641 105.816 92.3548 105.816C91.1388 105.816 90.1574 106.2 89.4108 106.968C88.6641 107.715 88.2908 108.867 88.2908 110.424V119H84.8348V96.6H88.2908V105.048C89.3361 103.405 90.9894 102.584 93.2508 102.584ZM110.668 119.416C108.321 119.416 106.327 118.605 104.684 116.984C103.041 115.363 102.22 113.368 102.22 111C102.22 108.632 103.041 106.637 104.684 105.016C106.327 103.395 108.321 102.584 110.668 102.584C113.036 102.584 115.031 103.395 116.652 105.016C118.295 106.637 119.116 108.632 119.116 111C119.116 113.368 118.295 115.363 116.652 116.984C115.031 118.605 113.036 119.416 110.668 119.416ZM107.116 114.616C108.076 115.576 109.26 116.056 110.668 116.056C112.076 116.056 113.26 115.576 114.22 114.616C115.18 113.656 115.66 112.451 115.66 111C115.66 109.549 115.18 108.344 114.22 107.384C113.26 106.424 112.076 105.944 110.668 105.944C109.26 105.944 108.076 106.424 107.116 107.384C106.156 108.344 105.676 109.549 105.676 111C105.676 112.451 106.156 113.656 107.116 114.616ZM125.697 105.688C126.572 103.704 128.214 102.712 130.625 102.712V106.456C129.302 106.371 128.15 106.691 127.169 107.416C126.188 108.12 125.697 109.293 125.697 110.936V119H122.241V103H125.697V105.688ZM142.513 106.328H138.545V114.008C138.545 114.669 138.694 115.149 138.993 115.448C139.291 115.725 139.729 115.885 140.305 115.928C140.902 115.949 141.638 115.939 142.513 115.896V119C139.867 119.32 137.969 119.096 136.817 118.328C135.665 117.539 135.089 116.099 135.089 114.008V106.328H132.145V103H135.089V99.544L138.545 98.52V103H142.513V106.328ZM147.711 112.472C147.967 113.688 148.554 114.627 149.471 115.288C150.388 115.928 151.508 116.248 152.831 116.248C154.666 116.248 156.042 115.587 156.959 114.264L159.807 115.928C158.228 118.253 155.892 119.416 152.799 119.416C150.196 119.416 148.095 118.627 146.495 117.048C144.895 115.448 144.095 113.432 144.095 111C144.095 108.611 144.884 106.616 146.463 105.016C148.042 103.395 150.068 102.584 152.543 102.584C154.89 102.584 156.81 103.405 158.303 105.048C159.818 106.691 160.575 108.685 160.575 111.032C160.575 111.395 160.532 111.875 160.447 112.472H147.711ZM147.679 109.656H157.087C156.852 108.355 156.308 107.373 155.455 106.712C154.623 106.051 153.642 105.72 152.511 105.72C151.231 105.72 150.164 106.072 149.311 106.776C148.458 107.48 147.914 108.44 147.679 109.656ZM172.032 102.584C173.867 102.584 175.349 103.171 176.48 104.344C177.611 105.517 178.176 107.128 178.176 109.176V119H174.72V109.528C174.72 108.333 174.4 107.416 173.76 106.776C173.12 106.136 172.245 105.816 171.136 105.816C169.92 105.816 168.939 106.2 168.192 106.968C167.445 107.715 167.072 108.867 167.072 110.424V119H163.616V103H167.072V105.048C168.117 103.405 169.771 102.584 172.032 102.584ZM185.161 99.96C184.735 100.387 184.223 100.6 183.625 100.6C183.028 100.6 182.505 100.387 182.057 99.96C181.631 99.512 181.417 98.9893 181.417 98.392C181.417 97.7947 181.631 97.2827 182.057 96.856C182.484 96.408 183.007 96.184 183.625 96.184C184.244 96.184 184.767 96.408 185.193 96.856C185.62 97.2827 185.833 97.7947 185.833 98.392C185.833 98.9893 185.609 99.512 185.161 99.96ZM181.897 119V103H185.353V119H181.897ZM197.782 102.584C199.617 102.584 201.099 103.171 202.23 104.344C203.361 105.517 203.926 107.128 203.926 109.176V119H200.47V109.528C200.47 108.333 200.15 107.416 199.51 106.776C198.87 106.136 197.995 105.816 196.886 105.816C195.67 105.816 194.689 106.2 193.942 106.968C193.195 107.715 192.822 108.867 192.822 110.424V119H189.366V103H192.822V105.048C193.867 103.405 195.521 102.584 197.782 102.584ZM220.383 103H223.775V118.264C223.775 120.696 222.975 122.563 221.375 123.864C219.775 125.165 217.834 125.816 215.551 125.816C211.861 125.816 209.333 124.525 207.967 121.944L210.943 120.216C211.775 121.859 213.333 122.68 215.615 122.68C217.109 122.68 218.271 122.285 219.103 121.496C219.957 120.728 220.383 119.651 220.383 118.264V116.312C219.082 118.168 217.226 119.096 214.815 119.096C212.554 119.096 210.645 118.296 209.087 116.696C207.53 115.075 206.751 113.123 206.751 110.84C206.751 108.557 207.53 106.616 209.087 105.016C210.645 103.395 212.554 102.584 214.815 102.584C217.226 102.584 219.082 103.512 220.383 105.368V103ZM211.647 114.424C212.629 115.384 213.845 115.864 215.295 115.864C216.746 115.864 217.951 115.384 218.911 114.424C219.893 113.464 220.383 112.269 220.383 110.84C220.383 109.411 219.893 108.216 218.911 107.256C217.951 106.296 216.746 105.816 215.295 105.816C213.845 105.816 212.629 106.296 211.647 107.256C210.687 108.216 210.207 109.411 210.207 110.84C210.207 112.269 210.687 113.464 211.647 114.424Z" fill="#141414"/>
<path d="M4.91601 156.208C3.87067 156.208 2.97467 155.963 2.22801 155.472C1.49201 154.981 0.974673 154.309 0.676006 153.456L1.95601 152.72C2.39334 154.075 3.39067 154.752 4.94801 154.752C5.71601 154.752 6.30267 154.597 6.70801 154.288C7.11334 153.968 7.31601 153.547 7.31601 153.024C7.31601 152.491 7.11334 152.091 6.70801 151.824C6.30267 151.557 5.62534 151.275 4.67601 150.976C4.20667 150.827 3.84934 150.709 3.60401 150.624C3.35867 150.528 3.04934 150.389 2.67601 150.208C2.31334 150.016 2.04134 149.824 1.86001 149.632C1.67867 149.429 1.51334 149.168 1.36401 148.848C1.22534 148.528 1.15601 148.165 1.15601 147.76C1.15601 146.789 1.49734 146.021 2.18001 145.456C2.86267 144.88 3.69467 144.592 4.67601 144.592C5.56134 144.592 6.32934 144.816 6.98001 145.264C7.64134 145.712 8.13734 146.304 8.46801 147.04L7.22001 147.76C6.74001 146.608 5.89201 146.032 4.67601 146.032C4.06801 146.032 3.57734 146.181 3.20401 146.48C2.83067 146.779 2.64401 147.184 2.64401 147.696C2.64401 148.187 2.82001 148.56 3.17201 148.816C3.52401 149.072 4.13201 149.339 4.99601 149.616C5.30534 149.712 5.52401 149.781 5.65201 149.824C5.78001 149.867 5.97734 149.941 6.24401 150.048C6.52134 150.155 6.72401 150.24 6.85201 150.304C6.98001 150.368 7.15067 150.459 7.36401 150.576C7.58801 150.693 7.75334 150.805 7.86001 150.912C7.96667 151.019 8.08934 151.152 8.22801 151.312C8.37734 151.461 8.48401 151.616 8.54801 151.776C8.61201 151.936 8.66534 152.123 8.70801 152.336C8.76134 152.539 8.78801 152.757 8.78801 152.992C8.78801 153.973 8.43067 154.757 7.71601 155.344C7.00134 155.92 6.06801 156.208 4.91601 156.208ZM14.3535 156.208C13.1482 156.208 12.1455 155.808 11.3455 155.008C10.5455 154.197 10.1455 153.195 10.1455 152C10.1455 150.805 10.5455 149.808 11.3455 149.008C12.1455 148.197 13.1482 147.792 14.3535 147.792C15.1428 147.792 15.8522 147.984 16.4815 148.368C17.1108 148.741 17.5802 149.248 17.8895 149.888L16.7215 150.56C16.5188 150.133 16.2042 149.792 15.7775 149.536C15.3615 149.28 14.8868 149.152 14.3535 149.152C13.5535 149.152 12.8815 149.424 12.3375 149.968C11.8042 150.512 11.5375 151.189 11.5375 152C11.5375 152.8 11.8042 153.472 12.3375 154.016C12.8815 154.56 13.5535 154.832 14.3535 154.832C14.8868 154.832 15.3668 154.709 15.7935 154.464C16.2202 154.208 16.5455 153.867 16.7695 153.44L17.9535 154.128C17.6122 154.757 17.1215 155.264 16.4815 155.648C15.8415 156.021 15.1322 156.208 14.3535 156.208ZM20.0319 146.544C19.7652 146.544 19.5412 146.453 19.3599 146.272C19.1785 146.091 19.0879 145.872 19.0879 145.616C19.0879 145.36 19.1785 145.141 19.3599 144.96C19.5412 144.768 19.7652 144.672 20.0319 144.672C20.2879 144.672 20.5065 144.768 20.6879 144.96C20.8692 145.141 20.9599 145.36 20.9599 145.616C20.9599 145.872 20.8692 146.091 20.6879 146.272C20.5065 146.453 20.2879 146.544 20.0319 146.544ZM19.3279 156V148H20.7199V156H19.3279ZM24.0279 150.16C24.0279 150.469 24.1825 150.72 24.4919 150.912C24.8012 151.093 25.1745 151.243 25.6119 151.36C26.0492 151.467 26.4865 151.595 26.9239 151.744C27.3612 151.883 27.7345 152.128 28.0439 152.48C28.3532 152.821 28.5079 153.264 28.5079 153.808C28.5079 154.533 28.2252 155.115 27.6599 155.552C27.1052 155.989 26.3905 156.208 25.5159 156.208C24.7372 156.208 24.0705 156.037 23.5159 155.696C22.9612 155.355 22.5665 154.901 22.3319 154.336L23.5319 153.648C23.6599 154.032 23.8999 154.336 24.2519 154.56C24.6039 154.784 25.0252 154.896 25.5159 154.896C25.9745 154.896 26.3532 154.811 26.6519 154.64C26.9505 154.459 27.0999 154.181 27.0999 153.808C27.0999 153.499 26.9452 153.253 26.6359 153.072C26.3265 152.88 25.9532 152.731 25.5159 152.624C25.0785 152.507 24.6412 152.373 24.2039 152.224C23.7665 152.075 23.3932 151.829 23.0839 151.488C22.7745 151.147 22.6199 150.709 22.6199 150.176C22.6199 149.483 22.8865 148.912 23.4199 148.464C23.9639 148.016 24.6412 147.792 25.4519 147.792C26.1025 147.792 26.6785 147.941 27.1799 148.24C27.6919 148.528 28.0759 148.933 28.3319 149.456L27.1639 150.112C26.8759 149.429 26.3052 149.088 25.4519 149.088C25.0572 149.088 24.7212 149.184 24.4439 149.376C24.1665 149.557 24.0279 149.819 24.0279 150.16ZM30.856 150.16C30.856 150.469 31.0107 150.72 31.32 150.912C31.6293 151.093 32.0027 151.243 32.44 151.36C32.8773 151.467 33.3147 151.595 33.752 151.744C34.1893 151.883 34.5627 152.128 34.872 152.48C35.1813 152.821 35.336 153.264 35.336 153.808C35.336 154.533 35.0533 155.115 34.488 155.552C33.9333 155.989 33.2187 156.208 32.344 156.208C31.5653 156.208 30.8987 156.037 30.344 155.696C29.7893 155.355 29.3947 154.901 29.16 154.336L30.36 153.648C30.488 154.032 30.728 154.336 31.08 154.56C31.432 154.784 31.8533 154.896 32.344 154.896C32.8027 154.896 33.1813 154.811 33.48 154.64C33.7787 154.459 33.928 154.181 33.928 153.808C33.928 153.499 33.7733 153.253 33.464 153.072C33.1547 152.88 32.7813 152.731 32.344 152.624C31.9067 152.507 31.4693 152.373 31.032 152.224C30.5947 152.075 30.2213 151.829 29.912 151.488C29.6027 151.147 29.448 150.709 29.448 150.176C29.448 149.483 29.7147 148.912 30.248 148.464C30.792 148.016 31.4693 147.792 32.28 147.792C32.9307 147.792 33.5067 147.941 34.008 148.24C34.52 148.528 34.904 148.933 35.16 149.456L33.992 150.112C33.704 149.429 33.1333 149.088 32.28 149.088C31.8853 149.088 31.5493 149.184 31.272 149.376C30.9947 149.557 30.856 149.819 30.856 150.16ZM43.5174 154.992C42.696 155.803 41.6987 156.208 40.5254 156.208C39.352 156.208 38.3547 155.803 37.5334 154.992C36.7227 154.181 36.3174 153.184 36.3174 152C36.3174 150.816 36.7227 149.819 37.5334 149.008C38.3547 148.197 39.352 147.792 40.5254 147.792C41.6987 147.792 42.696 148.197 43.5174 149.008C44.3387 149.819 44.7494 150.816 44.7494 152C44.7494 153.184 44.3387 154.181 43.5174 154.992ZM40.5254 154.848C41.3254 154.848 41.9974 154.576 42.5414 154.032C43.0854 153.488 43.3574 152.811 43.3574 152C43.3574 151.189 43.0854 150.512 42.5414 149.968C41.9974 149.424 41.3254 149.152 40.5254 149.152C39.736 149.152 39.0694 149.424 38.5254 149.968C37.9814 150.512 37.7094 151.189 37.7094 152C37.7094 152.811 37.9814 153.488 38.5254 154.032C39.0694 154.576 39.736 154.848 40.5254 154.848ZM47.7824 149.344C48.241 148.352 49.073 147.856 50.2784 147.856V149.312C49.5957 149.28 49.009 149.461 48.5184 149.856C48.0277 150.251 47.7824 150.885 47.7824 151.76V156H46.3904V148H47.7824V149.344ZM62.2644 148H63.6564V156H62.2644V154.624C61.571 155.68 60.563 156.208 59.2404 156.208C58.1204 156.208 57.1657 155.803 56.3764 154.992C55.587 154.171 55.1924 153.173 55.1924 152C55.1924 150.827 55.587 149.835 56.3764 149.024C57.1657 148.203 58.1204 147.792 59.2404 147.792C60.563 147.792 61.571 148.32 62.2644 149.376V148ZM59.4164 154.864C60.227 154.864 60.9044 154.592 61.4484 154.048C61.9924 153.493 62.2644 152.811 62.2644 152C62.2644 151.189 61.9924 150.512 61.4484 149.968C60.9044 149.413 60.227 149.136 59.4164 149.136C58.6164 149.136 57.9444 149.413 57.4004 149.968C56.8564 150.512 56.5844 151.189 56.5844 152C56.5844 152.811 56.8564 153.493 57.4004 154.048C57.9444 154.592 58.6164 154.864 59.4164 154.864ZM65.7654 156V144.32H67.1574V156H65.7654ZM69.281 156V144.32H70.673V156H69.281ZM79.5486 154.992C78.7273 155.803 77.73 156.208 76.5566 156.208C75.3833 156.208 74.386 155.803 73.5646 154.992C72.754 154.181 72.3486 153.184 72.3486 152C72.3486 150.816 72.754 149.819 73.5646 149.008C74.386 148.197 75.3833 147.792 76.5566 147.792C77.73 147.792 78.7273 148.197 79.5486 149.008C80.37 149.819 80.7806 150.816 80.7806 152C80.7806 153.184 80.37 154.181 79.5486 154.992ZM76.5566 154.848C77.3566 154.848 78.0286 154.576 78.5726 154.032C79.1166 153.488 79.3886 152.811 79.3886 152C79.3886 151.189 79.1166 150.512 78.5726 149.968C78.0286 149.424 77.3566 149.152 76.5566 149.152C75.7673 149.152 75.1006 149.424 74.5566 149.968C74.0126 150.512 73.7406 151.189 73.7406 152C73.7406 152.811 74.0126 153.488 74.5566 154.032C75.1006 154.576 75.7673 154.848 76.5566 154.848ZM91.5331 148H92.9891L90.5091 156H89.0851L87.2131 150.08L85.3411 156H83.9171L81.4371 148H82.8931L84.6531 154.08L86.5411 148H87.8851L89.7731 154.096L91.5331 148ZM95.1216 150.16C95.1216 150.469 95.2763 150.72 95.5856 150.912C95.895 151.093 96.2683 151.243 96.7056 151.36C97.143 151.467 97.5803 151.595 98.0176 151.744C98.455 151.883 98.8283 152.128 99.1376 152.48C99.447 152.821 99.6016 153.264 99.6016 153.808C99.6016 154.533 99.319 155.115 98.7536 155.552C98.199 155.989 97.4843 156.208 96.6096 156.208C95.831 156.208 95.1643 156.037 94.6096 155.696C94.055 155.355 93.6603 154.901 93.4256 154.336L94.6256 153.648C94.7536 154.032 94.9936 154.336 95.3456 154.56C95.6976 154.784 96.119 154.896 96.6096 154.896C97.0683 154.896 97.447 154.811 97.7456 154.64C98.0443 154.459 98.1936 154.181 98.1936 153.808C98.1936 153.499 98.039 153.253 97.7296 153.072C97.4203 152.88 97.047 152.731 96.6096 152.624C96.1723 152.507 95.735 152.373 95.2976 152.224C94.8603 152.075 94.487 151.829 94.1776 151.488C93.8683 151.147 93.7136 150.709 93.7136 150.176C93.7136 149.483 93.9803 148.912 94.5136 148.464C95.0576 148.016 95.735 147.792 96.5456 147.792C97.1963 147.792 97.7723 147.941 98.2736 148.24C98.7856 148.528 99.1696 148.933 99.4256 149.456L98.2576 150.112C97.9696 149.429 97.399 149.088 96.5456 149.088C96.151 149.088 95.815 149.184 95.5376 149.376C95.2603 149.557 95.1216 149.819 95.1216 150.16ZM110.834 148H112.322L109.058 156.496C108.716 157.403 108.236 158.091 107.618 158.56C107.01 159.04 106.306 159.253 105.506 159.2V157.904C106.487 157.979 107.207 157.435 107.666 156.272L107.81 155.968L104.322 148H105.81L108.53 154.272L110.834 148ZM119.924 154.992C119.102 155.803 118.105 156.208 116.932 156.208C115.758 156.208 114.761 155.803 113.94 154.992C113.129 154.181 112.724 153.184 112.724 152C112.724 150.816 113.129 149.819 113.94 149.008C114.761 148.197 115.758 147.792 116.932 147.792C118.105 147.792 119.102 148.197 119.924 149.008C120.745 149.819 121.156 150.816 121.156 152C121.156 153.184 120.745 154.181 119.924 154.992ZM116.932 154.848C117.732 154.848 118.404 154.576 118.948 154.032C119.492 153.488 119.764 152.811 119.764 152C119.764 151.189 119.492 150.512 118.948 149.968C118.404 149.424 117.732 149.152 116.932 149.152C116.142 149.152 115.476 149.424 114.932 149.968C114.388 150.512 114.116 151.189 114.116 152C114.116 152.811 114.388 153.488 114.932 154.032C115.476 154.576 116.142 154.848 116.932 154.848ZM128.317 148H129.709V156H128.317V154.848C127.751 155.755 126.887 156.208 125.725 156.208C124.786 156.208 124.034 155.915 123.469 155.328C122.903 154.731 122.621 153.925 122.621 152.912V148H124.013V152.832C124.013 153.483 124.189 153.989 124.541 154.352C124.893 154.704 125.378 154.88 125.997 154.88C126.69 154.88 127.25 154.667 127.677 154.24C128.103 153.803 128.317 153.136 128.317 152.24V148ZM140.18 149.344H138.052V153.68C138.052 154.075 138.127 154.357 138.276 154.528C138.436 154.688 138.676 154.773 138.996 154.784C139.316 154.784 139.711 154.773 140.18 154.752V156C138.964 156.16 138.073 156.064 137.508 155.712C136.943 155.349 136.66 154.672 136.66 153.68V149.344H135.076V148H136.66V146.176L138.052 145.76V148H140.18V149.344ZM148.174 154.992C147.352 155.803 146.355 156.208 145.182 156.208C144.008 156.208 143.011 155.803 142.19 154.992C141.379 154.181 140.974 153.184 140.974 152C140.974 150.816 141.379 149.819 142.19 149.008C143.011 148.197 144.008 147.792 145.182 147.792C146.355 147.792 147.352 148.197 148.174 149.008C148.995 149.819 149.406 150.816 149.406 152C149.406 153.184 148.995 154.181 148.174 154.992ZM145.182 154.848C145.982 154.848 146.654 154.576 147.198 154.032C147.742 153.488 148.014 152.811 148.014 152C148.014 151.189 147.742 150.512 147.198 149.968C146.654 149.424 145.982 149.152 145.182 149.152C144.392 149.152 143.726 149.424 143.182 149.968C142.638 150.512 142.366 151.189 142.366 152C142.366 152.811 142.638 153.488 143.182 154.032C143.726 154.576 144.392 154.848 145.182 154.848ZM156.247 150.16C156.247 150.469 156.401 150.72 156.711 150.912C157.02 151.093 157.393 151.243 157.831 151.36C158.268 151.467 158.705 151.595 159.143 151.744C159.58 151.883 159.953 152.128 160.263 152.48C160.572 152.821 160.727 153.264 160.727 153.808C160.727 154.533 160.444 155.115 159.879 155.552C159.324 155.989 158.609 156.208 157.735 156.208C156.956 156.208 156.289 156.037 155.735 155.696C155.18 155.355 154.785 154.901 154.551 154.336L155.751 153.648C155.879 154.032 156.119 154.336 156.471 154.56C156.823 154.784 157.244 154.896 157.735 154.896C158.193 154.896 158.572 154.811 158.871 154.64C159.169 154.459 159.319 154.181 159.319 153.808C159.319 153.499 159.164 153.253 158.855 153.072C158.545 152.88 158.172 152.731 157.735 152.624C157.297 152.507 156.86 152.373 156.423 152.224C155.985 152.075 155.612 151.829 155.303 151.488C154.993 151.147 154.839 150.709 154.839 150.176C154.839 149.483 155.105 148.912 155.639 148.464C156.183 148.016 156.86 147.792 157.671 147.792C158.321 147.792 158.897 147.941 159.399 148.24C159.911 148.528 160.295 148.933 160.551 149.456L159.383 150.112C159.095 149.429 158.524 149.088 157.671 149.088C157.276 149.088 156.94 149.184 156.663 149.376C156.385 149.557 156.247 149.819 156.247 150.16ZM166.281 147.792C167.219 147.792 167.971 148.091 168.537 148.688C169.102 149.275 169.385 150.075 169.385 151.088V156H167.993V151.168C167.993 150.517 167.817 150.016 167.465 149.664C167.113 149.301 166.627 149.12 166.009 149.12C165.315 149.12 164.755 149.339 164.329 149.776C163.902 150.203 163.689 150.864 163.689 151.76V156H162.297V144.8H163.689V149.152C164.254 148.245 165.118 147.792 166.281 147.792ZM178.08 154.992C177.259 155.803 176.261 156.208 175.088 156.208C173.915 156.208 172.917 155.803 172.096 154.992C171.285 154.181 170.88 153.184 170.88 152C170.88 150.816 171.285 149.819 172.096 149.008C172.917 148.197 173.915 147.792 175.088 147.792C176.261 147.792 177.259 148.197 178.08 149.008C178.901 149.819 179.312 150.816 179.312 152C179.312 153.184 178.901 154.181 178.08 154.992ZM175.088 154.848C175.888 154.848 176.56 154.576 177.104 154.032C177.648 153.488 177.92 152.811 177.92 152C177.92 151.189 177.648 150.512 177.104 149.968C176.56 149.424 175.888 149.152 175.088 149.152C174.299 149.152 173.632 149.424 173.088 149.968C172.544 150.512 172.272 151.189 172.272 152C172.272 152.811 172.544 153.488 173.088 154.032C173.632 154.576 174.299 154.848 175.088 154.848ZM182.345 149.344C182.804 148.352 183.636 147.856 184.841 147.856V149.312C184.158 149.28 183.572 149.461 183.081 149.856C182.59 150.251 182.345 150.885 182.345 151.76V156H180.953V148H182.345V149.344ZM190.742 149.344H188.614V153.68C188.614 154.075 188.689 154.357 188.838 154.528C188.998 154.688 189.238 154.773 189.558 154.784C189.878 154.784 190.273 154.773 190.742 154.752V156C189.526 156.16 188.636 156.064 188.07 155.712C187.505 155.349 187.222 154.672 187.222 153.68V149.344H185.638V148H187.222V146.176L188.614 145.76V148H190.742V149.344ZM192.96 152.64C193.099 153.355 193.424 153.909 193.936 154.304C194.459 154.699 195.099 154.896 195.856 154.896C196.912 154.896 197.68 154.507 198.16 153.728L199.344 154.4C198.565 155.605 197.392 156.208 195.824 156.208C194.555 156.208 193.52 155.813 192.72 155.024C191.931 154.224 191.536 153.216 191.536 152C191.536 150.795 191.925 149.792 192.704 148.992C193.483 148.192 194.491 147.792 195.728 147.792C196.901 147.792 197.856 148.208 198.592 149.04C199.339 149.861 199.712 150.853 199.712 152.016C199.712 152.219 199.696 152.427 199.664 152.64H192.96ZM195.728 149.104C194.981 149.104 194.363 149.317 193.872 149.744C193.381 150.16 193.077 150.72 192.96 151.424H198.304C198.187 150.667 197.888 150.091 197.408 149.696C196.928 149.301 196.368 149.104 195.728 149.104ZM205.296 147.792C206.235 147.792 206.987 148.091 207.552 148.688C208.118 149.275 208.4 150.075 208.4 151.088V156H207.008V151.168C207.008 150.517 206.832 150.016 206.48 149.664C206.128 149.301 205.643 149.12 205.024 149.12C204.331 149.12 203.771 149.339 203.344 149.776C202.918 150.203 202.704 150.864 202.704 151.76V156H201.312V148H202.704V149.152C203.27 148.245 204.134 147.792 205.296 147.792ZM221.576 155.136C220.797 155.851 219.789 156.208 218.552 156.208C217.314 156.208 216.301 155.851 215.512 155.136C214.733 154.411 214.344 153.445 214.344 152.24V144.8H215.832V152.176C215.832 152.965 216.066 153.595 216.536 154.064C217.005 154.523 217.677 154.752 218.552 154.752C219.426 154.752 220.098 154.523 220.568 154.064C221.037 153.595 221.272 152.965 221.272 152.176V144.8H222.744V152.24C222.744 153.445 222.354 154.411 221.576 155.136ZM231.659 156L229.147 151.712H226.507V156H225.019V144.8H229.499C230.459 144.8 231.28 145.141 231.963 145.824C232.645 146.496 232.987 147.312 232.987 148.272C232.987 148.997 232.768 149.659 232.331 150.256C231.904 150.853 231.349 151.275 230.667 151.52L233.307 156H231.659ZM226.507 146.192V150.368H229.499C230.053 150.368 230.523 150.165 230.907 149.76C231.301 149.344 231.499 148.848 231.499 148.272C231.499 147.696 231.301 147.205 230.907 146.8C230.523 146.395 230.053 146.192 229.499 146.192H226.507ZM236.288 154.592H241.12V156H234.8V144.8H236.288V154.592ZM243.669 150.16C243.669 150.469 243.823 150.72 244.133 150.912C244.442 151.093 244.815 151.243 245.253 151.36C245.69 151.467 246.127 151.595 246.565 151.744C247.002 151.883 247.375 152.128 247.685 152.48C247.994 152.821 248.149 153.264 248.149 153.808C248.149 154.533 247.866 155.115 247.301 155.552C246.746 155.989 246.031 156.208 245.157 156.208C244.378 156.208 243.711 156.037 243.157 155.696C242.602 155.355 242.207 154.901 241.973 154.336L243.173 153.648C243.301 154.032 243.541 154.336 243.893 154.56C244.245 154.784 244.666 154.896 245.157 154.896C245.615 154.896 245.994 154.811 246.293 154.64C246.591 154.459 246.741 154.181 246.741 153.808C246.741 153.499 246.586 153.253 246.277 153.072C245.967 152.88 245.594 152.731 245.157 152.624C244.719 152.507 244.282 152.373 243.845 152.224C243.407 152.075 243.034 151.829 242.725 151.488C242.415 151.147 242.261 150.709 242.261 150.176C242.261 149.483 242.527 148.912 243.061 148.464C243.605 148.016 244.282 147.792 245.093 147.792C245.743 147.792 246.319 147.941 246.821 148.24C247.333 148.528 247.717 148.933 247.973 149.456L246.805 150.112C246.517 149.429 245.946 149.088 245.093 149.088C244.698 149.088 244.362 149.184 244.085 149.376C243.807 149.557 243.669 149.819 243.669 150.16ZM260.549 154.992C259.727 155.803 258.73 156.208 257.557 156.208C256.383 156.208 255.386 155.803 254.565 154.992C253.754 154.181 253.349 153.184 253.349 152C253.349 150.816 253.754 149.819 254.565 149.008C255.386 148.197 256.383 147.792 257.557 147.792C258.73 147.792 259.727 148.197 260.549 149.008C261.37 149.819 261.781 150.816 261.781 152C261.781 153.184 261.37 154.181 260.549 154.992ZM257.557 154.848C258.357 154.848 259.029 154.576 259.573 154.032C260.117 153.488 260.389 152.811 260.389 152C260.389 151.189 260.117 150.512 259.573 149.968C259.029 149.424 258.357 149.152 257.557 149.152C256.767 149.152 256.101 149.424 255.557 149.968C255.013 150.512 254.741 151.189 254.741 152C254.741 152.811 255.013 153.488 255.557 154.032C256.101 154.576 256.767 154.848 257.557 154.848ZM267.237 145.936C265.829 145.819 265.125 146.427 265.125 147.76V148H267.237V149.344H265.125V156H263.733V149.344H262.453V148H263.733V147.76C263.733 146.683 264.031 145.867 264.629 145.312C265.237 144.757 266.106 144.517 267.237 144.592V145.936ZM277.881 148H279.369L276.105 156.496C275.763 157.403 275.283 158.091 274.665 158.56C274.057 159.04 273.353 159.253 272.553 159.2V157.904C273.534 157.979 274.254 157.435 274.713 156.272L274.857 155.968L271.369 148H272.857L275.577 154.272L277.881 148ZM286.971 154.992C286.149 155.803 285.152 156.208 283.979 156.208C282.805 156.208 281.808 155.803 280.987 154.992C280.176 154.181 279.771 153.184 279.771 152C279.771 150.816 280.176 149.819 280.987 149.008C281.808 148.197 282.805 147.792 283.979 147.792C285.152 147.792 286.149 148.197 286.971 149.008C287.792 149.819 288.203 150.816 288.203 152C288.203 153.184 287.792 154.181 286.971 154.992ZM283.979 154.848C284.779 154.848 285.451 154.576 285.995 154.032C286.539 153.488 286.811 152.811 286.811 152C286.811 151.189 286.539 150.512 285.995 149.968C285.451 149.424 284.779 149.152 283.979 149.152C283.189 149.152 282.523 149.424 281.979 149.968C281.435 150.512 281.163 151.189 281.163 152C281.163 152.811 281.435 153.488 281.979 154.032C282.523 154.576 283.189 154.848 283.979 154.848ZM295.364 148H296.756V156H295.364V154.848C294.798 155.755 293.934 156.208 292.772 156.208C291.833 156.208 291.081 155.915 290.516 155.328C289.95 154.731 289.668 153.925 289.668 152.912V148H291.06V152.832C291.06 153.483 291.236 153.989 291.588 154.352C291.94 154.704 292.425 154.88 293.044 154.88C293.737 154.88 294.297 154.667 294.724 154.24C295.15 153.803 295.364 153.136 295.364 152.24V148ZM300.267 149.344C300.725 148.352 301.557 147.856 302.763 147.856V149.312C302.08 149.28 301.493 149.461 301.003 149.856C300.512 150.251 300.267 150.885 300.267 151.76V156H298.875V148H300.267V149.344ZM5.57201 171.792C6.69201 171.792 7.64667 172.203 8.43601 173.024C9.22534 173.835 9.62001 174.827 9.62001 176C9.62001 177.173 9.22534 178.171 8.43601 178.992C7.64667 179.803 6.69201 180.208 5.57201 180.208C4.24934 180.208 3.24134 179.68 2.54801 178.624V180H1.15601V168.8H2.54801V173.376C3.24134 172.32 4.24934 171.792 5.57201 171.792ZM5.39601 178.864C6.19601 178.864 6.86801 178.592 7.41201 178.048C7.95601 177.493 8.22801 176.811 8.22801 176C8.22801 175.189 7.95601 174.512 7.41201 173.968C6.86801 173.413 6.19601 173.136 5.39601 173.136C4.58534 173.136 3.90801 173.413 3.36401 173.968C2.82001 174.512 2.54801 175.189 2.54801 176C2.54801 176.811 2.82001 177.493 3.36401 178.048C3.90801 178.592 4.58534 178.864 5.39601 178.864ZM16.801 172H18.193V180H16.801V178.848C16.2357 179.755 15.3717 180.208 14.209 180.208C13.2703 180.208 12.5183 179.915 11.953 179.328C11.3877 178.731 11.105 177.925 11.105 176.912V172H12.497V176.832C12.497 177.483 12.673 177.989 13.025 178.352C13.377 178.704 13.8623 178.88 14.481 178.88C15.1743 178.88 15.7343 178.667 16.161 178.24C16.5877 177.803 16.801 177.136 16.801 176.24V172ZM21.4966 174.16C21.4966 174.469 21.6513 174.72 21.9606 174.912C22.27 175.093 22.6433 175.243 23.0806 175.36C23.518 175.467 23.9553 175.595 24.3926 175.744C24.83 175.883 25.2033 176.128 25.5126 176.48C25.822 176.821 25.9766 177.264 25.9766 177.808C25.9766 178.533 25.694 179.115 25.1286 179.552C24.574 179.989 23.8593 180.208 22.9846 180.208C22.206 180.208 21.5393 180.037 20.9846 179.696C20.43 179.355 20.0353 178.901 19.8006 178.336L21.0006 177.648C21.1286 178.032 21.3686 178.336 21.7206 178.56C22.0726 178.784 22.494 178.896 22.9846 178.896C23.4433 178.896 23.822 178.811 24.1206 178.64C24.4193 178.459 24.5686 178.181 24.5686 177.808C24.5686 177.499 24.414 177.253 24.1046 177.072C23.7953 176.88 23.422 176.731 22.9846 176.624C22.5473 176.507 22.11 176.373 21.6726 176.224C21.2353 176.075 20.862 175.829 20.5526 175.488C20.2433 175.147 20.0886 174.709 20.0886 174.176C20.0886 173.483 20.3553 172.912 20.8886 172.464C21.4326 172.016 22.11 171.792 22.9206 171.792C23.5713 171.792 24.1473 171.941 24.6486 172.24C25.1606 172.528 25.5446 172.933 25.8006 173.456L24.6326 174.112C24.3446 173.429 23.774 173.088 22.9206 173.088C22.526 173.088 22.19 173.184 21.9126 173.376C21.6353 173.557 21.4966 173.819 21.4966 174.16ZM28.2506 170.544C27.984 170.544 27.76 170.453 27.5786 170.272C27.3973 170.091 27.3066 169.872 27.3066 169.616C27.3066 169.36 27.3973 169.141 27.5786 168.96C27.76 168.768 27.984 168.672 28.2506 168.672C28.5066 168.672 28.7253 168.768 28.9066 168.96C29.088 169.141 29.1786 169.36 29.1786 169.616C29.1786 169.872 29.088 170.091 28.9066 170.272C28.7253 170.453 28.5066 170.544 28.2506 170.544ZM27.5466 180V172H28.9386V180H27.5466ZM35.0463 171.792C35.9849 171.792 36.7369 172.091 37.3023 172.688C37.8676 173.275 38.1503 174.075 38.1503 175.088V180H36.7583V175.168C36.7583 174.517 36.5823 174.016 36.2303 173.664C35.8783 173.301 35.3929 173.12 34.7743 173.12C34.0809 173.12 33.5209 173.339 33.0943 173.776C32.6676 174.203 32.4543 174.864 32.4543 175.76V180H31.0623V172H32.4543V173.152C33.0196 172.245 33.8836 171.792 35.0463 171.792ZM41.0695 176.64C41.2082 177.355 41.5335 177.909 42.0455 178.304C42.5682 178.699 43.2082 178.896 43.9655 178.896C45.0215 178.896 45.7895 178.507 46.2695 177.728L47.4535 178.4C46.6748 179.605 45.5015 180.208 43.9335 180.208C42.6642 180.208 41.6295 179.813 40.8295 179.024C40.0402 178.224 39.6455 177.216 39.6455 176C39.6455 174.795 40.0348 173.792 40.8135 172.992C41.5922 172.192 42.6002 171.792 43.8375 171.792C45.0108 171.792 45.9655 172.208 46.7015 173.04C47.4482 173.861 47.8215 174.853 47.8215 176.016C47.8215 176.219 47.8055 176.427 47.7735 176.64H41.0695ZM43.8375 173.104C43.0908 173.104 42.4722 173.317 41.9815 173.744C41.4908 174.16 41.1868 174.72 41.0695 175.424H46.4135C46.2962 174.667 45.9975 174.091 45.5175 173.696C45.0375 173.301 44.4775 173.104 43.8375 173.104ZM50.3091 174.16C50.3091 174.469 50.4638 174.72 50.7731 174.912C51.0825 175.093 51.4558 175.243 51.8931 175.36C52.3305 175.467 52.7678 175.595 53.2051 175.744C53.6425 175.883 54.0158 176.128 54.3251 176.48C54.6345 176.821 54.7891 177.264 54.7891 177.808C54.7891 178.533 54.5065 179.115 53.9411 179.552C53.3865 179.989 52.6718 180.208 51.7971 180.208C51.0185 180.208 50.3518 180.037 49.7971 179.696C49.2425 179.355 48.8478 178.901 48.6131 178.336L49.8131 177.648C49.9411 178.032 50.1811 178.336 50.5331 178.56C50.8851 178.784 51.3065 178.896 51.7971 178.896C52.2558 178.896 52.6345 178.811 52.9331 178.64C53.2318 178.459 53.3811 178.181 53.3811 177.808C53.3811 177.499 53.2265 177.253 52.9171 177.072C52.6078 176.88 52.2345 176.731 51.7971 176.624C51.3598 176.507 50.9225 176.373 50.4851 176.224C50.0478 176.075 49.6745 175.829 49.3651 175.488C49.0558 175.147 48.9011 174.709 48.9011 174.176C48.9011 173.483 49.1678 172.912 49.7011 172.464C50.2451 172.016 50.9225 171.792 51.7331 171.792C52.3838 171.792 52.9598 171.941 53.4611 172.24C53.9731 172.528 54.3571 172.933 54.6131 173.456L53.4451 174.112C53.1571 173.429 52.5865 173.088 51.7331 173.088C51.3385 173.088 51.0025 173.184 50.7251 173.376C50.4478 173.557 50.3091 173.819 50.3091 174.16ZM57.1373 174.16C57.1373 174.469 57.2919 174.72 57.6013 174.912C57.9106 175.093 58.2839 175.243 58.7213 175.36C59.1586 175.467 59.5959 175.595 60.0333 175.744C60.4706 175.883 60.8439 176.128 61.1533 176.48C61.4626 176.821 61.6173 177.264 61.6173 177.808C61.6173 178.533 61.3346 179.115 60.7693 179.552C60.2146 179.989 59.4999 180.208 58.6253 180.208C57.8466 180.208 57.1799 180.037 56.6253 179.696C56.0706 179.355 55.6759 178.901 55.4413 178.336L56.6413 177.648C56.7693 178.032 57.0093 178.336 57.3613 178.56C57.7133 178.784 58.1346 178.896 58.6253 178.896C59.0839 178.896 59.4626 178.811 59.7613 178.64C60.0599 178.459 60.2093 178.181 60.2093 177.808C60.2093 177.499 60.0546 177.253 59.7453 177.072C59.4359 176.88 59.0626 176.731 58.6253 176.624C58.1879 176.507 57.7506 176.373 57.3133 176.224C56.8759 176.075 56.5026 175.829 56.1933 175.488C55.8839 175.147 55.7293 174.709 55.7293 174.176C55.7293 173.483 55.9959 172.912 56.5293 172.464C57.0733 172.016 57.7506 171.792 58.5613 171.792C59.2119 171.792 59.7879 171.941 60.2893 172.24C60.8013 172.528 61.1853 172.933 61.4413 173.456L60.2733 174.112C59.9853 173.429 59.4146 173.088 58.5613 173.088C58.1666 173.088 57.8306 173.184 57.5533 173.376C57.2759 173.557 57.1373 173.819 57.1373 174.16ZM65.1735 178.352L64.1335 182.24H62.9335L63.5735 178.352H65.1735ZM72.1164 176.64C72.255 177.355 72.5804 177.909 73.0924 178.304C73.615 178.699 74.255 178.896 75.0124 178.896C76.0684 178.896 76.8364 178.507 77.3164 177.728L78.5004 178.4C77.7217 179.605 76.5484 180.208 74.9804 180.208C73.711 180.208 72.6764 179.813 71.8764 179.024C71.087 178.224 70.6924 177.216 70.6924 176C70.6924 174.795 71.0817 173.792 71.8604 172.992C72.639 172.192 73.647 171.792 74.8844 171.792C76.0577 171.792 77.0124 172.208 77.7484 173.04C78.495 173.861 78.8684 174.853 78.8684 176.016C78.8684 176.219 78.8524 176.427 78.8204 176.64H72.1164ZM74.8844 173.104C74.1377 173.104 73.519 173.317 73.0284 173.744C72.5377 174.16 72.2337 174.72 72.1164 175.424H77.4604C77.343 174.667 77.0444 174.091 76.5644 173.696C76.0844 173.301 75.5244 173.104 74.8844 173.104ZM85.756 172H87.26L84.06 180H82.428L79.228 172H80.732L83.244 178.512L85.756 172ZM89.1008 176.64C89.2394 177.355 89.5648 177.909 90.0768 178.304C90.5994 178.699 91.2394 178.896 91.9968 178.896C93.0528 178.896 93.8208 178.507 94.3008 177.728L95.4848 178.4C94.7061 179.605 93.5328 180.208 91.9648 180.208C90.6954 180.208 89.6608 179.813 88.8608 179.024C88.0714 178.224 87.6768 177.216 87.6768 176C87.6768 174.795 88.0661 173.792 88.8448 172.992C89.6234 172.192 90.6314 171.792 91.8688 171.792C93.0421 171.792 93.9968 172.208 94.7328 173.04C95.4794 173.861 95.8528 174.853 95.8528 176.016C95.8528 176.219 95.8368 176.427 95.8048 176.64H89.1008ZM91.8688 173.104C91.1221 173.104 90.5034 173.317 90.0128 173.744C89.5221 174.16 89.2181 174.72 89.1008 175.424H94.4448C94.3274 174.667 94.0288 174.091 93.5488 173.696C93.0688 173.301 92.5088 173.104 91.8688 173.104ZM101.437 171.792C102.376 171.792 103.128 172.091 103.693 172.688C104.258 173.275 104.541 174.075 104.541 175.088V180H103.149V175.168C103.149 174.517 102.973 174.016 102.621 173.664C102.269 173.301 101.784 173.12 101.165 173.12C100.472 173.12 99.9115 173.339 99.4849 173.776C99.0582 174.203 98.8449 174.864 98.8449 175.76V180H97.4529V172H98.8449V173.152C99.4102 172.245 100.274 171.792 101.437 171.792ZM110.836 173.344H108.708V177.68C108.708 178.075 108.783 178.357 108.932 178.528C109.092 178.688 109.332 178.773 109.652 178.784C109.972 178.784 110.367 178.773 110.836 178.752V180C109.62 180.16 108.729 180.064 108.164 179.712C107.599 179.349 107.316 178.672 107.316 177.68V173.344H105.732V172H107.316V170.176L108.708 169.76V172H110.836V173.344ZM113.294 174.16C113.294 174.469 113.448 174.72 113.758 174.912C114.067 175.093 114.44 175.243 114.878 175.36C115.315 175.467 115.752 175.595 116.19 175.744C116.627 175.883 117 176.128 117.31 176.48C117.619 176.821 117.774 177.264 117.774 177.808C117.774 178.533 117.491 179.115 116.926 179.552C116.371 179.989 115.656 180.208 114.782 180.208C114.003 180.208 113.336 180.037 112.782 179.696C112.227 179.355 111.832 178.901 111.598 178.336L112.798 177.648C112.926 178.032 113.166 178.336 113.518 178.56C113.87 178.784 114.291 178.896 114.782 178.896C115.24 178.896 115.619 178.811 115.918 178.64C116.216 178.459 116.366 178.181 116.366 177.808C116.366 177.499 116.211 177.253 115.902 177.072C115.592 176.88 115.219 176.731 114.782 176.624C114.344 176.507 113.907 176.373 113.47 176.224C113.032 176.075 112.659 175.829 112.35 175.488C112.04 175.147 111.886 174.709 111.886 174.176C111.886 173.483 112.152 172.912 112.686 172.464C113.23 172.016 113.907 171.792 114.718 171.792C115.368 171.792 115.944 171.941 116.446 172.24C116.958 172.528 117.342 172.933 117.598 173.456L116.43 174.112C116.142 173.429 115.571 173.088 114.718 173.088C114.323 173.088 113.987 173.184 113.71 173.376C113.432 173.557 113.294 173.819 113.294 174.16ZM120.13 180.176C119.842 180.176 119.596 180.075 119.394 179.872C119.191 179.669 119.09 179.424 119.09 179.136C119.09 178.848 119.191 178.603 119.394 178.4C119.596 178.197 119.842 178.096 120.13 178.096C120.428 178.096 120.674 178.197 120.866 178.4C121.068 178.603 121.17 178.848 121.17 179.136C121.17 179.424 121.068 179.669 120.866 179.872C120.674 180.075 120.428 180.176 120.13 180.176ZM130.9 180.208C129.855 180.208 128.959 179.963 128.212 179.472C127.476 178.981 126.959 178.309 126.66 177.456L127.94 176.72C128.378 178.075 129.375 178.752 130.932 178.752C131.7 178.752 132.287 178.597 132.692 178.288C133.098 177.968 133.3 177.547 133.3 177.024C133.3 176.491 133.098 176.091 132.692 175.824C132.287 175.557 131.61 175.275 130.66 174.976C130.191 174.827 129.834 174.709 129.588 174.624C129.343 174.528 129.034 174.389 128.66 174.208C128.298 174.016 128.026 173.824 127.844 173.632C127.663 173.429 127.498 173.168 127.348 172.848C127.21 172.528 127.14 172.165 127.14 171.76C127.14 170.789 127.482 170.021 128.164 169.456C128.847 168.88 129.679 168.592 130.66 168.592C131.546 168.592 132.314 168.816 132.964 169.264C133.626 169.712 134.122 170.304 134.452 171.04L133.204 171.76C132.724 170.608 131.876 170.032 130.66 170.032C130.052 170.032 129.562 170.181 129.188 170.48C128.815 170.779 128.628 171.184 128.628 171.696C128.628 172.187 128.804 172.56 129.156 172.816C129.508 173.072 130.116 173.339 130.98 173.616C131.29 173.712 131.508 173.781 131.636 173.824C131.764 173.867 131.962 173.941 132.228 174.048C132.506 174.155 132.708 174.24 132.836 174.304C132.964 174.368 133.135 174.459 133.348 174.576C133.572 174.693 133.738 174.805 133.844 174.912C133.951 175.019 134.074 175.152 134.212 175.312C134.362 175.461 134.468 175.616 134.532 175.776C134.596 175.936 134.65 176.123 134.692 176.336C134.746 176.539 134.772 176.757 134.772 176.992C134.772 177.973 134.415 178.757 133.7 179.344C132.986 179.92 132.052 180.208 130.9 180.208ZM140.374 171.792C141.313 171.792 142.065 172.091 142.63 172.688C143.196 173.275 143.478 174.075 143.478 175.088V180H142.086V175.168C142.086 174.517 141.91 174.016 141.558 173.664C141.206 173.301 140.721 173.12 140.102 173.12C139.409 173.12 138.849 173.339 138.422 173.776C137.996 174.203 137.782 174.864 137.782 175.76V180H136.39V168.8H137.782V173.152C138.348 172.245 139.212 171.792 140.374 171.792ZM152.174 178.992C151.352 179.803 150.355 180.208 149.182 180.208C148.008 180.208 147.011 179.803 146.19 178.992C145.379 178.181 144.974 177.184 144.974 176C144.974 174.816 145.379 173.819 146.19 173.008C147.011 172.197 148.008 171.792 149.182 171.792C150.355 171.792 151.352 172.197 152.174 173.008C152.995 173.819 153.406 174.816 153.406 176C153.406 177.184 152.995 178.181 152.174 178.992ZM149.182 178.848C149.982 178.848 150.654 178.576 151.198 178.032C151.742 177.488 152.014 176.811 152.014 176C152.014 175.189 151.742 174.512 151.198 173.968C150.654 173.424 149.982 173.152 149.182 173.152C148.392 173.152 147.726 173.424 147.182 173.968C146.638 174.512 146.366 175.189 146.366 176C146.366 176.811 146.638 177.488 147.182 178.032C147.726 178.576 148.392 178.848 149.182 178.848ZM156.439 173.344C156.897 172.352 157.729 171.856 158.935 171.856V173.312C158.252 173.28 157.665 173.461 157.175 173.856C156.684 174.251 156.439 174.885 156.439 175.76V180H155.047V172H156.439V173.344ZM164.836 173.344H162.708V177.68C162.708 178.075 162.783 178.357 162.932 178.528C163.092 178.688 163.332 178.773 163.652 178.784C163.972 178.784 164.367 178.773 164.836 178.752V180C163.62 180.16 162.729 180.064 162.164 179.712C161.599 179.349 161.316 178.672 161.316 177.68V173.344H159.732V172H161.316V170.176L162.708 169.76V172H164.836V173.344ZM167.054 176.64C167.193 177.355 167.518 177.909 168.03 178.304C168.553 178.699 169.193 178.896 169.95 178.896C171.006 178.896 171.774 178.507 172.254 177.728L173.438 178.4C172.659 179.605 171.486 180.208 169.918 180.208C168.649 180.208 167.614 179.813 166.814 179.024C166.025 178.224 165.63 177.216 165.63 176C165.63 174.795 166.019 173.792 166.798 172.992C167.577 172.192 168.585 171.792 169.822 171.792C170.995 171.792 171.95 172.208 172.686 173.04C173.433 173.861 173.806 174.853 173.806 176.016C173.806 176.219 173.79 176.427 173.758 176.64H167.054ZM169.822 173.104C169.075 173.104 168.457 173.317 167.966 173.744C167.475 174.16 167.171 174.72 167.054 175.424H172.398C172.281 174.667 171.982 174.091 171.502 173.696C171.022 173.301 170.462 173.104 169.822 173.104ZM179.39 171.792C180.329 171.792 181.081 172.091 181.646 172.688C182.211 173.275 182.494 174.075 182.494 175.088V180H181.102V175.168C181.102 174.517 180.926 174.016 180.574 173.664C180.222 173.301 179.737 173.12 179.118 173.12C178.425 173.12 177.865 173.339 177.438 173.776C177.011 174.203 176.798 174.864 176.798 175.76V180H175.406V172H176.798V173.152C177.363 172.245 178.227 171.792 179.39 171.792ZM194.021 172H195.509L192.245 180.496C191.904 181.403 191.424 182.091 190.805 182.56C190.197 183.04 189.493 183.253 188.693 183.2V181.904C189.675 181.979 190.395 181.435 190.853 180.272L190.997 179.968L187.509 172H188.997L191.717 178.272L194.021 172ZM203.111 178.992C202.29 179.803 201.292 180.208 200.119 180.208C198.946 180.208 197.948 179.803 197.127 178.992C196.316 178.181 195.911 177.184 195.911 176C195.911 174.816 196.316 173.819 197.127 173.008C197.948 172.197 198.946 171.792 200.119 171.792C201.292 171.792 202.29 172.197 203.111 173.008C203.932 173.819 204.343 174.816 204.343 176C204.343 177.184 203.932 178.181 203.111 178.992ZM200.119 178.848C200.919 178.848 201.591 178.576 202.135 178.032C202.679 177.488 202.951 176.811 202.951 176C202.951 175.189 202.679 174.512 202.135 173.968C201.591 173.424 200.919 173.152 200.119 173.152C199.33 173.152 198.663 173.424 198.119 173.968C197.575 174.512 197.303 175.189 197.303 176C197.303 176.811 197.575 177.488 198.119 178.032C198.663 178.576 199.33 178.848 200.119 178.848ZM211.504 172H212.896V180H211.504V178.848C210.939 179.755 210.075 180.208 208.912 180.208C207.973 180.208 207.221 179.915 206.656 179.328C206.091 178.731 205.808 177.925 205.808 176.912V172H207.2V176.832C207.2 177.483 207.376 177.989 207.728 178.352C208.08 178.704 208.565 178.88 209.184 178.88C209.877 178.88 210.437 178.667 210.864 178.24C211.291 177.803 211.504 177.136 211.504 176.24V172ZM216.407 173.344C216.866 172.352 217.698 171.856 218.903 171.856V173.312C218.221 173.28 217.634 173.461 217.143 173.856C216.653 174.251 216.407 174.885 216.407 175.76V180H215.015V172H216.407V173.344ZM231.497 179.136C230.719 179.851 229.711 180.208 228.473 180.208C227.236 180.208 226.223 179.851 225.433 179.136C224.655 178.411 224.265 177.445 224.265 176.24V168.8H225.753V176.176C225.753 176.965 225.988 177.595 226.457 178.064C226.927 178.523 227.599 178.752 228.473 178.752C229.348 178.752 230.02 178.523 230.489 178.064C230.959 177.595 231.193 176.965 231.193 176.176V168.8H232.665V176.24C232.665 177.445 232.276 178.411 231.497 179.136ZM241.581 180L239.069 175.712H236.429V180H234.941V168.8H239.421C240.381 168.8 241.202 169.141 241.885 169.824C242.567 170.496 242.909 171.312 242.909 172.272C242.909 172.997 242.69 173.659 242.253 174.256C241.826 174.853 241.271 175.275 240.589 175.52L243.229 180H241.581ZM236.429 170.192V174.368H239.421C239.975 174.368 240.445 174.165 240.829 173.76C241.223 173.344 241.421 172.848 241.421 172.272C241.421 171.696 241.223 171.205 240.829 170.8C240.445 170.395 239.975 170.192 239.421 170.192H236.429ZM246.21 178.592H251.042V180H244.722V168.8H246.21V178.592ZM263.014 172H264.406V180H263.014V178.624C262.321 179.68 261.313 180.208 259.99 180.208C258.87 180.208 257.916 179.803 257.126 178.992C256.337 178.171 255.942 177.173 255.942 176C255.942 174.827 256.337 173.835 257.126 173.024C257.916 172.203 258.87 171.792 259.99 171.792C261.313 171.792 262.321 172.32 263.014 173.376V172ZM260.166 178.864C260.977 178.864 261.654 178.592 262.198 178.048C262.742 177.493 263.014 176.811 263.014 176C263.014 175.189 262.742 174.512 262.198 173.968C261.654 173.413 260.977 173.136 260.166 173.136C259.366 173.136 258.694 173.413 258.15 173.968C257.606 174.512 257.334 175.189 257.334 176C257.334 176.811 257.606 177.493 258.15 178.048C258.694 178.592 259.366 178.864 260.166 178.864ZM270.867 173.344H268.739V177.68C268.739 178.075 268.814 178.357 268.963 178.528C269.123 178.688 269.363 178.773 269.683 178.784C270.003 178.784 270.398 178.773 270.867 178.752V180C269.651 180.16 268.761 180.064 268.195 179.712C267.63 179.349 267.347 178.672 267.347 177.68V173.344H265.763V172H267.347V170.176L268.739 169.76V172H270.867V173.344ZM277.762 174.16C277.762 174.469 277.917 174.72 278.226 174.912C278.536 175.093 278.909 175.243 279.346 175.36C279.784 175.467 280.221 175.595 280.658 175.744C281.096 175.883 281.469 176.128 281.778 176.48C282.088 176.821 282.242 177.264 282.242 177.808C282.242 178.533 281.96 179.115 281.394 179.552C280.84 179.989 280.125 180.208 279.25 180.208C278.472 180.208 277.805 180.037 277.25 179.696C276.696 179.355 276.301 178.901 276.066 178.336L277.266 177.648C277.394 178.032 277.634 178.336 277.986 178.56C278.338 178.784 278.76 178.896 279.25 178.896C279.709 178.896 280.088 178.811 280.386 178.64C280.685 178.459 280.834 178.181 280.834 177.808C280.834 177.499 280.68 177.253 280.37 177.072C280.061 176.88 279.688 176.731 279.25 176.624C278.813 176.507 278.376 176.373 277.938 176.224C277.501 176.075 277.128 175.829 276.818 175.488C276.509 175.147 276.354 174.709 276.354 174.176C276.354 173.483 276.621 172.912 277.154 172.464C277.698 172.016 278.376 171.792 279.186 171.792C279.837 171.792 280.413 171.941 280.914 172.24C281.426 172.528 281.81 172.933 282.066 173.456L280.898 174.112C280.61 173.429 280.04 173.088 279.186 173.088C278.792 173.088 278.456 173.184 278.178 173.376C277.901 173.557 277.762 173.819 277.762 174.16ZM287.432 180.208C286.226 180.208 285.224 179.808 284.424 179.008C283.624 178.197 283.224 177.195 283.224 176C283.224 174.805 283.624 173.808 284.424 173.008C285.224 172.197 286.226 171.792 287.432 171.792C288.221 171.792 288.93 171.984 289.56 172.368C290.189 172.741 290.658 173.248 290.968 173.888L289.8 174.56C289.597 174.133 289.282 173.792 288.856 173.536C288.44 173.28 287.965 173.152 287.432 173.152C286.632 173.152 285.96 173.424 285.416 173.968C284.882 174.512 284.616 175.189 284.616 176C284.616 176.8 284.882 177.472 285.416 178.016C285.96 178.56 286.632 178.832 287.432 178.832C287.965 178.832 288.445 178.709 288.872 178.464C289.298 178.208 289.624 177.867 289.848 177.44L291.032 178.128C290.69 178.757 290.2 179.264 289.56 179.648C288.92 180.021 288.21 180.208 287.432 180.208ZM298.921 172H300.313V180H298.921V178.624C298.227 179.68 297.219 180.208 295.897 180.208C294.777 180.208 293.822 179.803 293.033 178.992C292.243 178.171 291.849 177.173 291.849 176C291.849 174.827 292.243 173.835 293.033 173.024C293.822 172.203 294.777 171.792 295.897 171.792C297.219 171.792 298.227 172.32 298.921 173.376V172ZM296.073 178.864C296.883 178.864 297.561 178.592 298.105 178.048C298.649 177.493 298.921 176.811 298.921 176C298.921 175.189 298.649 174.512 298.105 173.968C297.561 173.413 296.883 173.136 296.073 173.136C295.273 173.136 294.601 173.413 294.057 173.968C293.513 174.512 293.241 175.189 293.241 176C293.241 176.811 293.513 177.493 294.057 178.048C294.601 178.592 295.273 178.864 296.073 178.864ZM302.422 180V168.32H303.814V180H302.422ZM306.913 176.64C307.052 177.355 307.377 177.909 307.889 178.304C308.412 178.699 309.052 178.896 309.809 178.896C310.865 178.896 311.633 178.507 312.113 177.728L313.297 178.4C312.519 179.605 311.345 180.208 309.777 180.208C308.508 180.208 307.473 179.813 306.673 179.024C305.884 178.224 305.489 177.216 305.489 176C305.489 174.795 305.879 173.792 306.657 172.992C307.436 172.192 308.444 171.792 309.681 171.792C310.855 171.792 311.809 172.208 312.545 173.04C313.292 173.861 313.665 174.853 313.665 176.016C313.665 176.219 313.649 176.427 313.617 176.64H306.913ZM309.681 173.104C308.935 173.104 308.316 173.317 307.825 173.744C307.335 174.16 307.031 174.72 306.913 175.424H312.257C312.14 174.667 311.841 174.091 311.361 173.696C310.881 173.301 310.321 173.104 309.681 173.104ZM316.705 178.352L315.665 182.24H314.465L315.105 178.352H316.705ZM8.38801 203.136C7.60934 203.851 6.60134 204.208 5.36401 204.208C4.12667 204.208 3.11334 203.851 2.32401 203.136C1.54534 202.411 1.15601 201.445 1.15601 200.24V192.8H2.64401V200.176C2.64401 200.965 2.87867 201.595 3.34801 202.064C3.81734 202.523 4.48934 202.752 5.36401 202.752C6.23867 202.752 6.91067 202.523 7.38001 202.064C7.84934 201.595 8.08401 200.965 8.08401 200.176V192.8H9.55601V200.24C9.55601 201.445 9.16667 202.411 8.38801 203.136ZM18.4713 204L15.9593 199.712H13.3193V204H11.8313V192.8H16.3113C17.2713 192.8 18.0926 193.141 18.7753 193.824C19.4579 194.496 19.7993 195.312 19.7993 196.272C19.7993 196.997 19.5806 197.659 19.1433 198.256C18.7166 198.853 18.1619 199.275 17.4793 199.52L20.1193 204H18.4713ZM13.3193 194.192V198.368H16.3113C16.8659 198.368 17.3353 198.165 17.7193 197.76C18.1139 197.344 18.3113 196.848 18.3113 196.272C18.3113 195.696 18.1139 195.205 17.7193 194.8C17.3353 194.395 16.8659 194.192 16.3113 194.192H13.3193ZM23.1005 202.592H27.9325V204H21.6125V192.8H23.1005V202.592ZM34.673 197.344C35.1317 196.352 35.9637 195.856 37.169 195.856V197.312C36.4863 197.28 35.8997 197.461 35.409 197.856C34.9183 198.251 34.673 198.885 34.673 199.76V204H33.281V196H34.673V197.344ZM39.0695 200.64C39.2082 201.355 39.5335 201.909 40.0455 202.304C40.5682 202.699 41.2082 202.896 41.9655 202.896C43.0215 202.896 43.7895 202.507 44.2695 201.728L45.4535 202.4C44.6748 203.605 43.5015 204.208 41.9335 204.208C40.6642 204.208 39.6295 203.813 38.8295 203.024C38.0402 202.224 37.6455 201.216 37.6455 200C37.6455 198.795 38.0348 197.792 38.8135 196.992C39.5922 196.192 40.6002 195.792 41.8375 195.792C43.0108 195.792 43.9655 196.208 44.7015 197.04C45.4482 197.861 45.8215 198.853 45.8215 200.016C45.8215 200.219 45.8055 200.427 45.7735 200.64H39.0695ZM41.8375 197.104C41.0908 197.104 40.4722 197.317 39.9815 197.744C39.4908 198.16 39.1868 198.72 39.0695 199.424H44.4135C44.2962 198.667 43.9975 198.091 43.5175 197.696C43.0375 197.301 42.4775 197.104 41.8375 197.104ZM54.03 192.8H55.422V204H54.03V202.624C53.3367 203.68 52.3287 204.208 51.006 204.208C49.886 204.208 48.9313 203.803 48.142 202.992C47.3527 202.171 46.958 201.173 46.958 200C46.958 198.827 47.3527 197.835 48.142 197.024C48.9313 196.203 49.886 195.792 51.006 195.792C52.3287 195.792 53.3367 196.32 54.03 197.376V192.8ZM51.182 202.864C51.9927 202.864 52.67 202.592 53.214 202.048C53.758 201.493 54.03 200.811 54.03 200C54.03 199.189 53.758 198.512 53.214 197.968C52.67 197.413 51.9927 197.136 51.182 197.136C50.382 197.136 49.71 197.413 49.166 197.968C48.622 198.512 48.35 199.189 48.35 200C48.35 200.811 48.622 201.493 49.166 202.048C49.71 202.592 50.382 202.864 51.182 202.864ZM58.235 194.544C57.9683 194.544 57.7443 194.453 57.563 194.272C57.3817 194.091 57.291 193.872 57.291 193.616C57.291 193.36 57.3817 193.141 57.563 192.96C57.7443 192.768 57.9683 192.672 58.235 192.672C58.491 192.672 58.7097 192.768 58.891 192.96C59.0723 193.141 59.163 193.36 59.163 193.616C59.163 193.872 59.0723 194.091 58.891 194.272C58.7097 194.453 58.491 194.544 58.235 194.544ZM57.531 204V196H58.923V204H57.531ZM62.4386 197.344C62.8973 196.352 63.7293 195.856 64.9346 195.856V197.312C64.252 197.28 63.6653 197.461 63.1746 197.856C62.684 198.251 62.4386 198.885 62.4386 199.76V204H61.0466V196H62.4386V197.344ZM66.8351 200.64C66.9738 201.355 67.2991 201.909 67.8111 202.304C68.3338 202.699 68.9738 202.896 69.7311 202.896C70.7871 202.896 71.5551 202.507 72.0351 201.728L73.2191 202.4C72.4405 203.605 71.2671 204.208 69.6991 204.208C68.4298 204.208 67.3951 203.813 66.5951 203.024C65.8058 202.224 65.4111 201.216 65.4111 200C65.4111 198.795 65.8005 197.792 66.5791 196.992C67.3578 196.192 68.3658 195.792 69.6031 195.792C70.7765 195.792 71.7311 196.208 72.4671 197.04C73.2138 197.861 73.5871 198.853 73.5871 200.016C73.5871 200.219 73.5711 200.427 73.5391 200.64H66.8351ZM69.6031 197.104C68.8565 197.104 68.2378 197.317 67.7471 197.744C67.2565 198.16 66.9525 198.72 66.8351 199.424H72.1791C72.0618 198.667 71.7631 198.091 71.2831 197.696C70.8031 197.301 70.2431 197.104 69.6031 197.104ZM78.9316 204.208C77.7263 204.208 76.7236 203.808 75.9236 203.008C75.1236 202.197 74.7236 201.195 74.7236 200C74.7236 198.805 75.1236 197.808 75.9236 197.008C76.7236 196.197 77.7263 195.792 78.9316 195.792C79.721 195.792 80.4303 195.984 81.0596 196.368C81.689 196.741 82.1583 197.248 82.4676 197.888L81.2996 198.56C81.097 198.133 80.7823 197.792 80.3556 197.536C79.9396 197.28 79.465 197.152 78.9316 197.152C78.1316 197.152 77.4596 197.424 76.9156 197.968C76.3823 198.512 76.1156 199.189 76.1156 200C76.1156 200.8 76.3823 201.472 76.9156 202.016C77.4596 202.56 78.1316 202.832 78.9316 202.832C79.465 202.832 79.945 202.709 80.3716 202.464C80.7983 202.208 81.1236 201.867 81.3476 201.44L82.5316 202.128C82.1903 202.757 81.6996 203.264 81.0596 203.648C80.4196 204.021 79.7103 204.208 78.9316 204.208ZM88.258 197.344H86.13V201.68C86.13 202.075 86.2047 202.357 86.354 202.528C86.514 202.688 86.754 202.773 87.074 202.784C87.394 202.784 87.7887 202.773 88.258 202.752V204C87.042 204.16 86.1513 204.064 85.586 203.712C85.0207 203.349 84.738 202.672 84.738 201.68V197.344H83.154V196H84.738V194.176L86.13 193.76V196H88.258V197.344ZM90.7154 198.16C90.7154 198.469 90.87 198.72 91.1794 198.912C91.4887 199.093 91.862 199.243 92.2994 199.36C92.7367 199.467 93.174 199.595 93.6114 199.744C94.0487 199.883 94.422 200.128 94.7314 200.48C95.0407 200.821 95.1954 201.264 95.1954 201.808C95.1954 202.533 94.9127 203.115 94.3474 203.552C93.7927 203.989 93.078 204.208 92.2034 204.208C91.4247 204.208 90.758 204.037 90.2034 203.696C89.6487 203.355 89.254 202.901 89.0194 202.336L90.2194 201.648C90.3474 202.032 90.5874 202.336 90.9394 202.56C91.2914 202.784 91.7127 202.896 92.2034 202.896C92.662 202.896 93.0407 202.811 93.3394 202.64C93.638 202.459 93.7874 202.181 93.7874 201.808C93.7874 201.499 93.6327 201.253 93.3234 201.072C93.014 200.88 92.6407 200.731 92.2034 200.624C91.766 200.507 91.3287 200.373 90.8914 200.224C90.454 200.075 90.0807 199.829 89.7714 199.488C89.462 199.147 89.3074 198.709 89.3074 198.176C89.3074 197.483 89.574 196.912 90.1074 196.464C90.6514 196.016 91.3287 195.792 92.1394 195.792C92.79 195.792 93.366 195.941 93.8674 196.24C94.3794 196.528 94.7634 196.933 95.0194 197.456L93.8514 198.112C93.5634 197.429 92.9927 197.088 92.1394 197.088C91.7447 197.088 91.4087 197.184 91.1314 197.376C90.854 197.557 90.7154 197.819 90.7154 198.16ZM97.5516 204.176C97.2636 204.176 97.0183 204.075 96.8156 203.872C96.613 203.669 96.5116 203.424 96.5116 203.136C96.5116 202.848 96.613 202.603 96.8156 202.4C97.0183 202.197 97.2636 202.096 97.5516 202.096C97.8503 202.096 98.0956 202.197 98.2876 202.4C98.4903 202.603 98.5916 202.848 98.5916 203.136C98.5916 203.424 98.4903 203.669 98.2876 203.872C98.0956 204.075 97.8503 204.176 97.5516 204.176Z" fill="#141414"/>
<defs>
<clipPath id="clip0_1_201">
<rect width="24" height="24" fill="white" transform="translate(16.1 16)"/>
</clipPath>
</defs>
</svg>
